<svg width="394" height="455" viewBox="0 0 394 455" fill="none" xmlns="http://www.w3.org/2000/svg">
<path d="M186.861 4.99995C159.661 21.2999 138.861 43.7999 125.461 71.2999C120.861 80.8999 114.261 98.6999 115.061 99.4999C115.361 99.7999 119.361 98.2999 124.061 96.0999C132.561 92.1999 153.761 84.9999 156.861 84.9999C157.861 84.9999 160.561 81.7999 163.661 76.6999C169.261 67.4999 177.561 57.7999 187.061 49.3999C196.061 41.2999 195.961 41.3999 201.561 45.8999C209.161 51.8999 221.961 65.7999 226.961 73.4999C241.061 94.8999 247.261 115.8 247.361 141.5C247.361 166.6 241.461 187.1 228.261 207.8C224.761 213.2 224.161 215 225.861 215C226.361 215 229.961 217.9 233.761 221.5C241.261 228.6 246.461 237.2 249.361 247.5C251.161 253.6 251.761 266.1 250.461 271.5L249.761 274.5L257.761 275.8C277.761 279 298.161 288.6 316.561 303.6L319.761 306.2L321.761 299.3C324.261 290.8 326.861 276.2 326.861 270.3C326.861 266.1 326.761 265.9 320.661 261.9C311.861 256.2 297.961 249.6 287.361 246.1C277.661 242.9 259.961 239 254.961 239C253.261 239 251.861 238.6 251.861 238.2C251.861 237.7 254.361 233.6 257.361 229C288.461 181.7 292.061 121.7 266.661 71.0999C252.361 42.3999 233.061 21.4999 205.761 4.99995C201.161 2.29995 196.861 -5.33909e-05 196.261 -5.33909e-05C195.661 -5.33909e-05 191.461 2.19995 186.861 4.99995Z" fill="black"/>
<path d="M177.86 88.1001C139.86 92.5001 105.16 109 77.4604 135.9C39.5604 172.8 20.1604 223.8 24.7604 274.8C26.6604 296.6 25.3604 295.8 37.8604 282.7C43.8604 276.4 51.1604 269.5 54.1604 267.2L59.5604 263L60.1604 252.2C63.7604 193.1 106.06 142 163.76 127.4C185.46 121.9 208.46 121.9 230.36 127.5C235.86 128.9 240.36 130 240.46 130C240.46 130 240.16 127.4 239.66 124.2C237.36 109.5 230.96 91.4001 227.56 90.1001C220.66 87.5001 193.06 86.4001 177.86 88.1001Z" fill="#FF00C0"/>
<path d="M288.361 115.7C288.761 116.7 289.361 126.9 289.661 138.4L290.161 159.4L297.561 167.8C316.661 189.2 328.161 213.6 332.461 241.5C334.761 255.7 333.861 277.9 330.461 292.2C321.661 330 297.361 362.9 264.561 381.6L260.661 383.8L266.361 388.3C273.161 393.6 284.561 400.3 291.061 402.7L295.761 404.4L303.061 398.7C311.461 392.3 327.161 376.5 334.161 367.4C381.761 305.1 381.261 216.5 333.061 154.5C324.461 143.3 309.061 128.3 298.061 120.1C289.361 113.8 287.061 112.7 288.361 115.7Z" fill="#FF00C0"/>
<path d="M134.361 146.1C129.36 148.9 122.06 153.7 118.16 156.7C109.96 162.9 109.96 162.8 112.36 174.2C116.16 192.6 125.86 215.4 136.261 230.5L141.761 238.5L133.461 239.7C83.8605 246.8 40.9605 277.4 17.9605 322C6.0605 345 1.0605 364.3 0.1605 390C-0.4395 408.5 0.5605 418.7 4.5605 435.4C6.6605 443.9 7.6605 446.4 9.2605 447.1C14.4605 449.3 33.4605 453.1 45.0605 454.2C74.0605 456.9 109.76 449.3 133.661 435.3L137.961 432.7L129.16 429C118.46 424.5 113.46 422 104.16 416.4C97.0605 412 97.0605 412 92.9605 413.5C81.1605 417.6 59.0605 419.8 45.9605 418.1C41.3605 417.5 37.3605 416.8 37.1605 416.6C36.9605 416.4 36.3605 411.7 35.9605 406.1C31.2605 345.6 70.0605 291.5 128.26 277.5C133.761 276.1 139.461 275 140.861 275H143.361L143.061 264.1C142.561 252 143.861 245.8 148.861 236C151.961 229.8 159.461 221.1 165.061 217L168.761 214.3L165.761 209.9C154.361 193.1 146.661 170.6 145.161 149.8C144.861 145 144.261 141 143.961 141C143.561 141 139.261 143.3 134.361 146.1Z" fill="black"/>
<path d="M188.361 214C161.761 219.7 144.761 245 150.161 270.6C156.461 300 184.261 316.1 212.861 306.8C217.061 305.4 221.761 303.3 223.361 301.9C231.061 295.7 236.261 289.4 239.561 282.5C245.761 269.4 246.261 256.9 240.961 243C236.661 231.4 223.961 219.6 211.861 215.7C205.361 213.6 193.961 212.8 188.361 214ZM201.361 250.4C203.261 251.2 205.761 253.4 206.861 255.2C212.661 264.7 203.661 276.2 193.161 272.7C188.761 271.3 184.861 266.1 184.861 261.6C184.861 257.3 188.261 252.2 192.161 250.5C196.261 248.7 197.161 248.7 201.361 250.4Z" fill="#FF00C0"/>
<path d="M366.46 320.7C364.86 325.4 360.76 335 357.36 341.9C351.06 354.4 351.06 354.4 352.46 358.4C357.16 371.7 359.56 397.2 357.46 411.7L356.66 416.9L352.06 417.7C345.16 418.9 323.36 418.5 315.86 417.1C265.76 407.7 227.66 370.6 217.36 321.1C216.46 317 215.66 313.5 215.56 313.3C215.36 313.2 213.06 313.7 210.36 314.5C207.76 315.3 201.66 316 196.86 316C192.06 316 185.96 315.3 183.36 314.5C180.66 313.7 178.36 313.2 178.26 313.3C178.06 313.4 177.26 317.1 176.36 321.4C172.16 341.5 163.36 359.7 150.06 375.7C145.46 381.2 145.06 382 146.56 382.8C150.46 384.9 167.86 389.9 175.06 391C184.16 392.5 183.56 392.9 191.56 379.3C194.16 374.8 196.56 371.1 196.86 371.1C197.16 371 198.86 373.7 200.66 377C212.86 399.2 237.16 422.7 261.86 436.2C286.86 449.9 320.96 456.9 349.06 454.1C360.56 453 381.26 448.8 385.06 446.9C386.16 446.3 387.56 442.4 389.26 435.3C393.26 418.4 394.16 408.3 393.56 390C392.96 371.3 390.86 360 385.26 343.8C380.96 331.4 371.56 312 369.86 312C369.56 312 367.96 315.9 366.46 320.7Z" fill="black"/>
<path d="M67.6604 323.2C61.8604 330.4 58.0604 336.5 53.8604 345C50.0604 353 49.9604 353.3 51.6604 355.9C61.4604 371.5 82.1604 393.2 97.8604 404.2C108.56 411.8 129.36 422.5 141.36 426.5C163.06 433.8 188.26 437 209.66 435.2C223.26 434 238.86 431.2 238.86 430C238.86 429.6 237.86 428.6 236.66 427.7C232.06 424.7 219.86 413.3 213.86 406.5L207.66 399.5L201.06 399.8C187.16 400.5 162.46 396.4 149.06 391.1C117.76 378.7 89.7604 353.9 76.0604 326.2C74.0604 322.3 72.1604 319 71.7604 319C71.3604 319 69.5604 320.9 67.6604 323.2Z" fill="#FF00C0"/>
</svg>
